<?xml version="1.0" encoding="iso-8859-1"?>
<!-- Generator: Adobe Illustrator 19.0.0, SVG Export Plug-In . SVG Version: 6.00 Build 0)  -->
<svg xmlns="http://www.w3.org/2000/svg" xmlns:xlink="http://www.w3.org/1999/xlink" version="1.1" id="Capa_1" x="0px" y="0px" viewBox="0 0 512 512" style="enable-background:new 0 0 512 512;" xml:space="preserve" width="50px" height="50px">
<g>
	<g>
		<path d="M497,91h-76V15c0-8.291-6.709-15-15-15h-90c-8.291,0-15,6.709-15,15v181c0,8.291,6.709,15,15,15h75v75    c0,8.291,6.709,15,15,15h91c8.291,0,15-6.709,15-15V106C512,97.709,505.291,91,497,91z" fill="#FFFFFF"/>
	</g>
</g>
<g>
	<g>
		<path d="M256,151H15c-8.291,0-15,6.709-15,15v75c98.751,0,169.75,0,271,0v-75C271,157.709,264.291,151,256,151z" fill="#FFFFFF"/>
	</g>
</g>
<g>
	<g>
		<path d="M286,271H121v120h180V286C301,277.716,294.284,271,286,271z" fill="#FFFFFF"/>
	</g>
</g>
<g>
	<g>
		<path d="M106,421c-8.284,0-15-6.716-15-15V271H0v226c0,8.284,6.716,15,15,15h196v-91H106z" fill="#FFFFFF"/>
	</g>
</g>
<g>
	<g>
		<path d="M497,391h-76v-45c0-8.284-6.716-15-15-15h-75v75c0,8.284-6.716,15-15,15h-75v91h256c8.284,0,15-6.716,15-15v-91    C512,397.716,505.284,391,497,391z" fill="#FFFFFF"/>
	</g>
</g>
<g>
</g>
<g>
</g>
<g>
</g>
<g>
</g>
<g>
</g>
<g>
</g>
<g>
</g>
<g>
</g>
<g>
</g>
<g>
</g>
<g>
</g>
<g>
</g>
<g>
</g>
<g>
</g>
<g>
</g>
</svg>
